<?xml version="1.0" encoding="utf-8"?>
<svg version="1.1" xmlns:xlink="http://www.w3.org/1999/xlink" width="73px" height="18px" xmlns="http://www.w3.org/2000/svg">
  <defs>
    <mask fill="white" id="clip13">
      <path d="M 0 13  L 0 5  C 0 2.19999999999999  2.20000000000005 0  5 0  L 34.3333333333308 0  L 38.3333333333308 0  L 42.0185185185194 0  L 68 0  C 70.8 0  73 2.19999999999999  73 5  L 73 13  C 73 15.8  70.8 18  68 18  L 5 18  C 2.20000000000005 18  0 15.8  0 13  Z " fill-rule="evenodd" />
    </mask>
  </defs>
  <g transform="matrix(1 0 0 1 -1635 -425 )">
    <path d="M 0 13  L 0 5  C 0 2.19999999999999  2.20000000000005 0  5 0  L 34.3333333333308 0  L 38.3333333333308 0  L 42.0185185185194 0  L 68 0  C 70.8 0  73 2.19999999999999  73 5  L 73 13  C 73 15.8  70.8 18  68 18  L 5 18  C 2.20000000000005 18  0 15.8  0 13  Z " fill-rule="nonzero" fill="#ffffff" stroke="none" transform="matrix(1 0 0 1 1635 425 )" />
    <path d="M 0 13  L 0 5  C 0 2.19999999999999  2.20000000000005 0  5 0  L 34.3333333333308 0  L 38.3333333333308 0  L 42.0185185185194 0  L 68 0  C 70.8 0  73 2.19999999999999  73 5  L 73 13  C 73 15.8  70.8 18  68 18  L 5 18  C 2.20000000000005 18  0 15.8  0 13  Z " stroke-width="2" stroke="#797979" fill="none" transform="matrix(1 0 0 1 1635 425 )" mask="url(#clip13)" />
  </g>
</svg>